<?xml version="1.0" encoding="UTF-8" standalone="no"?>
<svg width="200px" height="200px" viewBox="0 0 200 200" version="1.1" xmlns="http://www.w3.org/2000/svg" xmlns:xlink="http://www.w3.org/1999/xlink">
    <!-- Generator: Sketch 39 (31667) - http://www.bohemiancoding.com/sketch -->
    <title>falcor_logo</title>
    <desc>Created with Sketch.</desc>
    <defs></defs>
    <g id="pages" stroke="none" stroke-width="1" fill="none" fill-rule="evenodd">
        <g id="falcor_logo">
            <g id="navigation-logo-inverse" transform="translate(19.000000, 8.000000)">
                <g id="Icon-+-Name-Inverse">
                    <g>
                        <g id="navigation-logo-inverse" transform="translate(0.822084, 0.817746)">
                            <g id="Group">
                                <polygon id="Shape" fill="#007EC6" points="38.2691756 65.8280937 19.4560569 76.7986987 0.64293806 87.7693037 0.64293806 65.8280937 0.64293806 43.8824202 19.4560569 54.8530256"></polygon>
                                <polygon id="Shape" fill="#26B2E7" points="75.8998322 43.8824202 57.0845039 32.9185101 38.2713852 21.9412102 57.0845039 10.9706051 75.8998322 0 75.8998322 21.9412102"></polygon>
                                <polygon id="Shape" fill="#0062AE" points="38.2691756 109.717209 19.4560569 120.685582 0.64293806 131.656187 0.64293806 109.717209 0.64293806 87.7759986 19.4560569 98.7466036"></polygon>
                                <polygon id="Shape" fill="#008BD0" points="38.2691756 65.8280937 19.4538475 54.8574888 0.64072865 43.8868834 19.4538475 32.9185101 38.2691756 21.947905 38.2691756 43.8868834"></polygon>
                                <polygon id="Shape" fill="#0071BB" points="0.64293806 87.7693037 19.4538475 98.739909 38.2691756 109.717209 38.2691756 87.7693037 38.2691756 65.8280937 19.4538475 76.7986987"></polygon>
                                <polygon id="Shape" fill="#009DDC" points="38.2691756 21.9412102 38.2691756 43.8824202 38.2691756 65.8280937 57.0822946 54.8574888 75.8954133 43.8868834 57.0822946 32.9185101"></polygon>
                                <polygon id="Shape" fill="#934C98" points="122.966875 65.8280937 141.779994 76.7986987 160.593113 87.7693037 160.593113 65.8280937 160.593113 43.8824202 141.779994 54.8530256"></polygon>
                                <polygon id="Shape" fill="#8A398D" points="122.966875 65.8280937 122.966875 43.8868834 122.966875 21.947905 141.779994 32.9185101 160.597532 43.8868834 141.779994 54.8574888"></polygon>
                                <polygon id="Shape" fill="#B987BB" points="122.966875 109.717209 141.779994 120.685582 160.593113 131.656187 160.593113 109.717209 160.593113 87.7759986 141.779994 98.7466036"></polygon>
                                <polygon id="Shape" fill="#752082" points="85.338428 43.8824202 85.338428 21.9412102 85.338428 0 104.151547 10.9706051 122.964666 21.9412102 104.151547 32.9185101"></polygon>
                                <polygon id="Shape" fill="#A466A7" points="160.593113 87.7693037 141.779994 98.739909 122.966875 109.717209 122.966875 87.7693037 122.966875 65.8280937 141.779994 76.7986987"></polygon>
                                <polygon id="Shape" fill="#7B1F82" points="122.966875 21.9412102 104.151547 32.9118152 85.338428 43.8824202 104.151547 54.8574888 122.966875 65.8280937 122.966875 43.8824202"></polygon>
                                <polygon id="Shape" fill="#64B32C" points="80.6147112 139.917615 99.4322488 150.885989 118.245368 161.856594 99.4322488 172.827199 80.6191301 183.804499 80.6147112 161.856594"></polygon>
                                <polygon id="Shape" fill="#8BBE2D" points="42.9906831 117.969711 42.9906831 139.917615 42.9906831 161.856594 24.1731454 150.885989 5.36444538 139.917615 24.1753548 128.940315"></polygon>
                                <polygon id="Shape" fill="#4CAD31" points="118.247577 117.969711 137.060696 128.940315 155.876024 139.917615 137.060696 150.885989 118.247577 161.856594 118.247577 139.917615"></polygon>
                                <polygon id="Shape" fill="#76B828" points="80.6191301 139.917615 80.6191301 161.856594 80.6191301 183.804499 61.8060114 172.827199 42.9928924 161.856594 61.8060114 150.885989"></polygon>
                                <polygon id="Shape" fill="#5DB12E" points="118.247577 161.856594 118.247577 139.917615 118.247577 117.976405 99.4344584 128.94701 80.6191301 139.917615 99.4344584 150.885989"></polygon>
                                <polygon id="Shape" fill="#82BB24" points="42.9928924 161.856594 61.8060114 150.885989 80.6191301 139.917615 61.8060114 128.94701 42.9928924 117.976405 42.9906831 139.917615"></polygon>
                            </g>
                        </g>
                    </g>
                </g>
            </g>
        </g>
    </g>
</svg>